<?xml version="1.0" standalone="no"?>
<!DOCTYPE svg PUBLIC "-//W3C//DTD SVG 20010904//EN"
 "http://www.w3.org/TR/2001/REC-SVG-20010904/DTD/svg10.dtd">
<svg version="1.0" xmlns="http://www.w3.org/2000/svg"
 width="720.000000pt" height="720.000000pt" viewBox="0 0 720.000000 720.000000"
 preserveAspectRatio="xMidYMid meet">
<metadata>
Created by potrace 1.11, written by Peter Selinger 2001-2013
</metadata>
<g transform="translate(0.000000,720.000000) scale(0.100000,-0.100000)"
fill="#000000" stroke="none">
<path d="M3368 7195 c-2 -2 -37 -6 -78 -9 -113 -8 -288 -33 -415 -61 -5 -1
-28 -5 -50 -10 -78 -15 -295 -76 -397 -111 -518 -180 -971 -463 -1367 -854
-79 -78 -117 -119 -208 -222 -60 -68 -197 -253 -268 -363 -66 -102 -189 -311
-190 -324 -1 -3 -13 -28 -27 -56 -14 -27 -45 -95 -68 -150 -23 -55 -49 -115
-57 -134 -42 -96 -147 -452 -167 -567 -3 -17 -12 -66 -21 -109 -8 -43 -17
-103 -21 -132 -3 -30 -7 -62 -9 -72 -26 -135 -27 -700 -1 -838 2 -10 7 -45 10
-78 4 -33 20 -127 37 -210 180 -900 690 -1689 1440 -2226 296 -211 622 -375
986 -495 73 -24 142 -46 155 -48 13 -3 64 -15 113 -27 105 -24 204 -45 260
-53 22 -3 56 -8 75 -11 133 -21 289 -30 510 -29 228 0 315 5 450 24 41 5 93
13 115 16 22 3 47 7 55 9 8 2 31 7 50 11 19 3 40 7 45 8 6 2 28 6 50 11 200
38 521 148 753 256 56 26 104 47 105 46 1 -1 16 8 34 21 17 12 34 22 38 22 17
0 284 167 410 257 181 128 419 345 584 530 209 236 425 564 552 838 22 50 52
113 65 142 13 28 24 58 24 65 0 8 4 18 9 24 23 24 136 387 166 534 65 315 80
472 80 800 -1 124 -4 254 -8 290 -4 36 -10 90 -13 120 -5 51 -37 243 -49 300
-3 14 -8 38 -11 54 -2 16 -7 32 -9 36 -2 3 -6 17 -9 31 -12 58 -17 77 -42 163
-208 712 -648 1361 -1233 1818 -110 86 -361 258 -377 258 -4 0 -15 7 -24 15
-33 30 -350 184 -500 242 -133 53 -317 115 -377 128 -10 2 -33 8 -50 14 -18 5
-33 8 -33 6 0 -3 -11 0 -26 5 -14 6 -37 12 -52 15 -71 13 -90 17 -127 25 -22
5 -62 12 -90 15 -27 4 -57 8 -65 10 -8 3 -46 7 -85 11 -38 3 -83 8 -100 11
-35 6 -542 13 -547 8z"/>
</g>
</svg>
